PathFileType	4	(X/Y/Z)	OpenSim_Sub10_EMGBaseline_Gyro.trc
DataRate	CameraRate	NumFrames	NumMarkers	Units	OrigDataRate	OrigDataStartFrame	OrigNumFrames
100	100	13	8	m	100	3076	8201
Frame#	Time	torso_imu_offset_imu	pelvis_imu_offset_imu	tibia_r_imu_offset_imu	femur_r_imu_offset_imu	tibia_l_imu_offset_imu	femur_l_imu_offset_imu	toes_r_imu_offset_imu	toes_l_imu_offset_imu
				X1	Y1	Z1	X2	Y2	Z2	X3	Y3	Z3	X4	Y4	Z4	X5	Y5	Z5	X6	Y6	Z6	X7	Y7	Z7	X8		Y8	Z8	

3076	30.75000000	0.34447700	-0.35746600	0.24631300	0.47186400	0.20450200	-0.26569200	-0.12186800	-0.06942800	-0.33860000	0.27413300	-0.11605300	-1.07527700	1.44422100	-0.28003000	-2.05062000	0.28930700	0.60074600	-1.61544100	0.08113400	-0.04304200	-0.05174000	0.74945900	4.80824900	0.79569000
3077	30.76000000	0.36371800	-0.35367900	0.24349800	0.52646800	0.20023500	-0.25693700	-0.01587900	-0.07851800	-0.31118300	0.17171400	-0.08230700	-1.12185800	0.88999000	-0.18371900	-2.51660600	0.06865200	0.44274400	-1.57297600	0.04491700	-0.04987400	-0.05245700	0.79212000	5.01798500	0.63758000
3078	30.77000000	0.39083200	-0.35376700	0.20859600	0.56975000	0.20663000	-0.23588900	0.06987500	-0.10674700	-0.31514900	0.08758200	-0.03864600	-1.14568200	0.60178100	-0.15055500	-2.97744800	-0.16033600	0.29323600	-1.49216400	0.05433900	-0.05138100	-0.04103900	0.80672700	5.17425700	0.47454200
3079	30.78000000	0.41165800	-0.29963100	0.17509000	0.59172600	0.21727900	-0.20120900	0.10850600	-0.10265600	-0.30296700	0.03649200	0.02139000	-1.15633800	0.35955700	-0.11654700	-3.40320600	-0.37940300	0.18172200	-1.41398900	0.04676300	-0.05658400	-0.03248800	0.90380100	5.34471400	0.30570900
3080	30.79000000	0.42880900	-0.26684400	0.18266400	0.59113100	0.23771500	-0.17896600	0.14431800	-0.09572600	-0.27168500	0.01168600	0.08089300	-1.15811600	0.13587400	-0.04051200	-3.80344200	-0.52289600	0.11578900	-1.30883100	0.06304600	-0.06051600	-0.04068800	0.99049400	5.49253800	0.14203400
3081	30.80000000	0.41771800	-0.25747200	0.17650400	0.54673600	0.26721600	-0.15567200	0.08723600	-0.06942200	-0.25643300	0.03484600	0.11290700	-1.15641300	-0.01631000	0.12702400	-4.20206100	-0.63791500	0.06997500	-1.20915300	0.05875800	-0.06104700	-0.04744000	1.07430400	5.60946900	-0.02502400
3082	30.81000000	0.37358700	-0.25812900	0.15758200	0.49373700	0.29886400	-0.14307800	0.00825200	-0.06425200	-0.25014400	0.11569000	0.12679300	-1.15395200	-0.16436800	0.31579800	-4.62357000	-0.72650400	0.05263800	-1.11305600	0.08403600	-0.05155900	-0.05686700	1.14987000	5.69237600	-0.18385600
3083	30.82000000	0.35439800	-0.23390500	0.12810900	0.43191700	0.32766100	-0.14411900	-0.05902400	-0.03921400	-0.23639800	0.22035100	0.12480600	-1.14219800	-0.19416800	0.46479700	-4.99325400	-0.74071300	0.03468000	-0.96795500	0.08177000	-0.04216700	-0.06696400	1.19275000	5.73722500	-0.33392400
3084	30.83000000	0.35607800	-0.18719200	0.10285100	0.37110900	0.34829000	-0.14180100	-0.12512000	-0.04289400	-0.24667900	0.32125200	0.11379600	-1.14358800	-0.04490300	0.55478600	-5.24851000	-0.73726100	0.01478300	-0.81209600	0.09121500	-0.04721300	-0.08343300	1.22946200	5.77295700	-0.50152700
3085	30.84000000	0.36292900	-0.16300600	0.09073600	0.33442000	0.34981500	-0.14418200	-0.20364600	-0.03449900	-0.26157700	0.41511200	0.09344900	-1.15961400	0.17145400	0.51110200	-5.43494200	-0.74532700	-0.02339900	-0.62269900	0.10750800	-0.03637600	-0.08504900	1.13634900	5.79922200	-0.68693700
3086	30.85000000	0.37267500	-0.12925600	0.09472700	0.30808200	0.33083500	-0.13998200	-0.26950300	-0.01839300	-0.27660600	0.51139600	0.07185000	-1.19666700	0.24908900	0.52380200	-5.62333600	-0.73704000	-0.07576600	-0.41882600	0.08396900	-0.03491500	-0.08588800	1.12570700	5.80069200	-0.86083300
3087	30.86000000	0.35552500	-0.12196000	0.10891600	0.28422100	0.29440200	-0.12051500	-0.27569000	-0.05519000	-0.29330600	0.59634100	0.05771900	-1.23115800	-0.10623200	0.68634100	-5.87880900	-0.71884500	-0.11557700	-0.21663300	0.09756200	-0.02151900	-0.09065700	1.18904100	5.75315400	-1.00787900
3088	30.87000000	0.30805800	-0.12693300	0.08580900	0.25487400	0.26881400	-0.10935000	-0.23394100	-0.04853200	-0.30495700	0.61319000	0.05500200	-1.25270300	-0.69295000	0.85466700	-6.23889900	-0.66647000	-0.14346600	-0.00794900	0.08879600	-0.02677100	-0.11479100	1.29471200	5.60676800	-1.17522400
